<svg width="112" height="50" viewBox="0 0 112 50" fill="none" xmlns="http://www.w3.org/2000/svg">
<path d="M99.0481 48.5H1.96726L8.44649 24.8971L8.55771 24.4919L8.44229 24.0879L1.98859 1.5H99.0644L110.336 24.513L99.0481 48.5Z" stroke="black" stroke-width="3"/>
<path d="M49.916 14.4961C49.8672 15.2871 49.8232 16.1123 49.7842 16.9717C49.7549 17.8213 49.7256 18.6758 49.6963 19.5352C49.6768 20.3945 49.6572 21.2393 49.6377 22.0693C49.6279 22.8994 49.6182 23.6807 49.6084 24.4131C49.5986 25.1455 49.5938 25.8145 49.5938 26.4199C49.5938 27.0254 49.5938 27.5381 49.5938 27.958C49.5938 28.5049 49.5938 29.1104 49.5938 29.7744C49.5938 30.4385 49.5986 31.1221 49.6084 31.8252C49.6182 32.5283 49.6279 33.2363 49.6377 33.9492C49.6572 34.6523 49.6816 35.3164 49.7109 35.9414C49.291 35.9219 48.9053 35.9121 48.5537 35.9121C48.2119 35.9121 47.8994 35.9121 47.6162 35.9121C47.1084 35.9121 46.6885 35.917 46.3564 35.9268C46.0244 35.9365 45.7607 35.9512 45.5654 35.9707C45.3311 35.9902 45.1504 36.0098 45.0234 36.0293C44.9941 35.8242 44.9307 35.5068 44.833 35.0771C44.7451 34.6377 44.6279 34.1201 44.4814 33.5244C44.3447 32.9287 44.1836 32.2695 43.998 31.5469C43.8125 30.8242 43.6123 30.0723 43.3975 29.291C43.1924 28.5098 42.9775 27.7188 42.7529 26.918C42.5283 26.1074 42.3037 25.3213 42.0791 24.5596C41.8643 23.7881 41.6494 23.0605 41.4346 22.377C41.2295 21.6836 41.0391 21.0635 40.8633 20.5166C40.7852 21.7666 40.7266 22.9238 40.6875 23.9883C40.6484 25.043 40.6191 25.9658 40.5996 26.7568C40.5703 27.6748 40.5557 28.5146 40.5557 29.2764C40.5557 29.9307 40.5703 30.624 40.5996 31.3564C40.6191 31.9814 40.6533 32.6943 40.7021 33.4951C40.7607 34.2959 40.8438 35.1113 40.9512 35.9414C40.1992 35.9121 39.5791 35.8975 39.0908 35.8975C38.6123 35.8877 38.2314 35.8828 37.9482 35.8828H37.2305C37.2793 34.1348 37.3184 32.6504 37.3477 31.4297C37.377 30.209 37.3965 29.1885 37.4062 28.3682C37.4258 27.5381 37.4355 26.874 37.4355 26.376C37.4453 25.8779 37.4502 25.4775 37.4502 25.1748C37.4502 24.8623 37.4453 24.6133 37.4355 24.4277C37.4355 24.2422 37.4355 24.0518 37.4355 23.8564C37.4355 23.3682 37.4307 22.7871 37.4209 22.1133C37.4209 21.4395 37.4111 20.7168 37.3916 19.9453C37.3721 19.1641 37.3428 18.3535 37.3037 17.5137C37.2646 16.6738 37.2109 15.8438 37.1426 15.0234C38.1387 15.0234 38.959 15.0137 39.6035 14.9941C40.248 14.9746 40.7607 14.9551 41.1416 14.9355C41.5908 14.9062 41.9375 14.877 42.1816 14.8477C42.2305 15.1602 42.3281 15.6484 42.4746 16.3125C42.6309 16.9766 42.8115 17.748 43.0166 18.627C43.2314 19.4961 43.4707 20.4385 43.7344 21.4541C43.998 22.4697 44.2666 23.4951 44.54 24.5303C44.8232 25.5557 45.1064 26.5566 45.3896 27.5332C45.6729 28.5 45.9414 29.374 46.1953 30.1553C46.2441 29.3252 46.2783 28.4805 46.2979 27.6211C46.3271 26.752 46.3467 25.9414 46.3564 25.1895C46.376 24.4375 46.3857 23.7832 46.3857 23.2266C46.3857 22.6602 46.3857 22.2695 46.3857 22.0547C46.376 21.166 46.3564 20.2773 46.3271 19.3887C46.3174 19.0078 46.3027 18.6123 46.2832 18.2021C46.2637 17.792 46.2393 17.3818 46.21 16.9717C46.1904 16.5518 46.1611 16.1416 46.1221 15.7412C46.0928 15.3408 46.0586 14.9648 46.0195 14.6133L49.916 14.4961ZM69.3984 13.7344C69.3203 14.7402 69.2568 15.7314 69.208 16.708C69.1592 17.6748 69.1104 18.6465 69.0615 19.623C69.4912 19.6035 69.916 19.5889 70.3359 19.5791C70.7559 19.5596 71.1855 19.5352 71.625 19.5059L71.6836 23.2559C71.2148 23.1777 70.751 23.1143 70.292 23.0654C69.833 23.0166 69.3838 22.9775 68.9443 22.9482C68.915 23.7783 68.8955 24.5986 68.8857 25.4092C68.8857 26.2197 68.8857 27.04 68.8857 27.8701C68.8857 29.3545 68.9004 30.8291 68.9297 32.2939C68.9688 33.7588 69.0273 35.2334 69.1055 36.7178L65.2822 36.6592C65.4092 34.3643 65.5117 32.0742 65.5898 29.7891C65.6777 27.4941 65.7363 25.1846 65.7656 22.8604C65.3555 22.8799 64.9453 22.9043 64.5352 22.9336C64.125 22.9531 63.7051 22.9775 63.2754 23.0068L63.3926 19.5352C63.793 19.5645 64.1885 19.5889 64.5791 19.6084C64.9795 19.6182 65.375 19.6328 65.7656 19.6523C65.7656 18.6758 65.7559 17.7041 65.7363 16.7373C65.7168 15.7607 65.6973 14.7793 65.6777 13.793L69.3984 13.7344ZM88.793 13.4707C88.7344 14.6621 88.6807 15.7656 88.6318 16.7812C88.583 17.7969 88.5391 18.7539 88.5 19.6523C88.4707 20.5508 88.4463 21.4053 88.4268 22.2158C88.4072 23.0264 88.3877 23.8271 88.3682 24.6182C88.3584 25.4092 88.3486 26.2051 88.3389 27.0059C88.3389 27.8066 88.3389 28.6465 88.3389 29.5254C88.3389 30.502 88.3389 31.5469 88.3389 32.6602C88.3389 33.7734 88.3486 35.0088 88.3682 36.3662L85.043 36.293C85.1016 34.8184 85.1406 33.3682 85.1602 31.9424C85.1797 30.5068 85.1895 29.0371 85.1895 27.5332C85.1895 26.5273 85.1846 25.4971 85.1748 24.4424C85.165 23.3779 85.1504 22.2695 85.1309 21.1172C85.1113 19.9551 85.0869 18.7344 85.0576 17.4551C85.0381 16.1758 85.0137 14.8184 84.9844 13.3828L88.793 13.4707Z" fill="black"/>
<path d="M59.0127 36.6006C58.9541 36.2979 58.9004 35.9902 58.8516 35.6777C58.8027 35.3652 58.7637 35.043 58.7344 34.7109C58.2852 35.375 57.748 35.8828 57.123 36.2344C56.498 36.5957 55.8145 36.7764 55.0723 36.7764C54.6914 36.7764 54.3008 36.7129 53.9004 36.5859C53.5 36.4688 53.1338 36.2588 52.8018 35.9561C52.4795 35.6533 52.2109 35.2432 51.9961 34.7256C51.791 34.1982 51.6885 33.5342 51.6885 32.7334C51.6885 32.0693 51.7861 31.4932 51.9814 31.0049C52.1768 30.5068 52.4307 30.0723 52.7432 29.7012C53.0557 29.3301 53.4072 29.0078 53.7979 28.7344C54.1885 28.4609 54.5742 28.2168 54.9551 28.002C55.3457 27.7871 55.7168 27.5869 56.0684 27.4014C56.4199 27.2158 56.708 27.0303 56.9326 26.8447C57.3623 26.5029 57.7334 26.1416 58.0459 25.7607C58.3682 25.3701 58.627 24.9648 58.8223 24.5449C58.7832 23.8711 58.71 23.3193 58.6025 22.8896C58.5049 22.4502 58.373 22.1035 58.207 21.8496C58.041 21.5859 57.8359 21.4053 57.5918 21.3076C57.3574 21.2002 57.0889 21.1465 56.7861 21.1465C56.3369 21.1465 55.9561 21.2441 55.6436 21.4395C55.3408 21.6348 55.0918 21.8691 54.8965 22.1426C55.1406 22.2988 55.3262 22.4648 55.4531 22.6406C55.5898 22.8164 55.6924 22.9873 55.7607 23.1533C55.8389 23.3389 55.8828 23.5293 55.8926 23.7246C55.8926 24.3887 55.7021 24.8965 55.3213 25.248C54.9502 25.5996 54.4717 25.7754 53.8857 25.7754C53.583 25.7754 53.3047 25.707 53.0508 25.5703C52.7969 25.4238 52.5723 25.2236 52.377 24.9697C52.1914 24.7158 52.0449 24.4131 51.9375 24.0615C51.8301 23.71 51.7764 23.3291 51.7764 22.9189C51.7764 22.5088 51.8691 22.0742 52.0547 21.6152C52.2402 21.1562 52.5381 20.7314 52.9482 20.3408C53.3584 19.9404 53.8857 19.6133 54.5303 19.3594C55.1748 19.0957 55.9561 18.9639 56.874 18.9639C57.792 18.9639 58.5781 19.1445 59.2324 19.5059C59.8867 19.8574 60.4238 20.3311 60.8438 20.9268C61.2637 21.5127 61.5664 22.1914 61.752 22.9629C61.9473 23.7344 62.0449 24.5303 62.0449 25.3506C62.0449 25.9658 62.04 26.6348 62.0303 27.3574C62.0205 28.0801 62.0156 28.8223 62.0156 29.584C62.0156 30.2188 62.0205 30.8535 62.0303 31.4883C62.04 32.123 62.0596 32.7383 62.0889 33.334C62.1182 33.9199 62.1572 34.4766 62.2061 35.0039C62.2549 35.5215 62.3184 35.9854 62.3965 36.3955L59.0127 36.6006ZM58.793 28.0166C58.4512 28.4268 58.085 28.7783 57.6943 29.0713C57.4014 29.2764 57.084 29.5059 56.7422 29.7598C56.4102 30.0137 56.0977 30.2822 55.8047 30.5654C55.5215 30.8486 55.2822 31.1465 55.0869 31.459C54.9014 31.7617 54.8086 32.0742 54.8086 32.3965C54.8086 32.8359 54.916 33.2119 55.1309 33.5244C55.3457 33.8369 55.6484 33.9932 56.0391 33.9932C56.4004 33.9932 56.7227 33.8955 57.0059 33.7002C57.2891 33.5049 57.5381 33.2656 57.7529 32.9824C57.9775 32.6895 58.1631 32.377 58.3096 32.0449C58.4658 31.7129 58.5879 31.4102 58.6758 31.1367L58.793 28.0166Z" fill="#FB0000"/>
<path d="M79.8135 36.6006C79.7549 36.2979 79.7012 35.9902 79.6523 35.6777C79.6035 35.3652 79.5645 35.043 79.5352 34.7109C79.0859 35.375 78.5488 35.8828 77.9238 36.2344C77.2988 36.5957 76.6152 36.7764 75.873 36.7764C75.4922 36.7764 75.1016 36.7129 74.7012 36.5859C74.3008 36.4688 73.9346 36.2588 73.6025 35.9561C73.2803 35.6533 73.0117 35.2432 72.7969 34.7256C72.5918 34.1982 72.4893 33.5342 72.4893 32.7334C72.4893 32.0693 72.5869 31.4932 72.7822 31.0049C72.9775 30.5068 73.2314 30.0723 73.5439 29.7012C73.8564 29.3301 74.208 29.0078 74.5986 28.7344C74.9893 28.4609 75.375 28.2168 75.7559 28.002C76.1465 27.7871 76.5176 27.5869 76.8691 27.4014C77.2207 27.2158 77.5088 27.0303 77.7334 26.8447C78.1631 26.5029 78.5342 26.1416 78.8467 25.7607C79.1689 25.3701 79.4277 24.9648 79.623 24.5449C79.584 23.8711 79.5107 23.3193 79.4033 22.8896C79.3057 22.4502 79.1738 22.1035 79.0078 21.8496C78.8418 21.5859 78.6367 21.4053 78.3926 21.3076C78.1582 21.2002 77.8896 21.1465 77.5869 21.1465C77.1377 21.1465 76.7568 21.2441 76.4443 21.4395C76.1416 21.6348 75.8926 21.8691 75.6973 22.1426C75.9414 22.2988 76.127 22.4648 76.2539 22.6406C76.3906 22.8164 76.4932 22.9873 76.5615 23.1533C76.6396 23.3389 76.6836 23.5293 76.6934 23.7246C76.6934 24.3887 76.5029 24.8965 76.1221 25.248C75.751 25.5996 75.2725 25.7754 74.6865 25.7754C74.3838 25.7754 74.1055 25.707 73.8516 25.5703C73.5977 25.4238 73.373 25.2236 73.1777 24.9697C72.9922 24.7158 72.8457 24.4131 72.7383 24.0615C72.6309 23.71 72.5771 23.3291 72.5771 22.9189C72.5771 22.5088 72.6699 22.0742 72.8555 21.6152C73.041 21.1562 73.3389 20.7314 73.749 20.3408C74.1592 19.9404 74.6865 19.6133 75.3311 19.3594C75.9756 19.0957 76.7568 18.9639 77.6748 18.9639C78.5928 18.9639 79.3789 19.1445 80.0332 19.5059C80.6875 19.8574 81.2246 20.3311 81.6445 20.9268C82.0645 21.5127 82.3672 22.1914 82.5527 22.9629C82.748 23.7344 82.8457 24.5303 82.8457 25.3506C82.8457 25.9658 82.8408 26.6348 82.8311 27.3574C82.8213 28.0801 82.8164 28.8223 82.8164 29.584C82.8164 30.2188 82.8213 30.8535 82.8311 31.4883C82.8408 32.123 82.8604 32.7383 82.8896 33.334C82.9189 33.9199 82.958 34.4766 83.0068 35.0039C83.0557 35.5215 83.1191 35.9854 83.1973 36.3955L79.8135 36.6006ZM79.5938 28.0166C79.252 28.4268 78.8857 28.7783 78.4951 29.0713C78.2021 29.2764 77.8848 29.5059 77.543 29.7598C77.2109 30.0137 76.8984 30.2822 76.6055 30.5654C76.3223 30.8486 76.083 31.1465 75.8877 31.459C75.7021 31.7617 75.6094 32.0742 75.6094 32.3965C75.6094 32.8359 75.7168 33.2119 75.9316 33.5244C76.1465 33.8369 76.4492 33.9932 76.8398 33.9932C77.2012 33.9932 77.5234 33.8955 77.8066 33.7002C78.0898 33.5049 78.3389 33.2656 78.5537 32.9824C78.7783 32.6895 78.9639 32.377 79.1104 32.0449C79.2666 31.7129 79.3887 31.4102 79.4766 31.1367L79.5938 28.0166Z" fill="#069559"/>
<path d="M20.1184 32.0165V36.5H23.1579V32.0165L21.5 30.3352L20.1184 32.0165Z" fill="#3E0A0A" fill-opacity="0.96" stroke="#2D0202"/>
<path d="M11 34.5383L21.5 31.4559L32 34.5383L24.8158 27.2526L30.0658 26.9724L23.9868 19.1263H27.3026L21.5 12.9614L16.5263 19.1263H19.0132L13.7632 27.2526L18.1842 26.9724L11 34.5383Z" fill="#069559" stroke="url(#paint0_linear)"/>
<path d="M21.4999 11L21.8722 11.9681H23.0767L22.1022 12.5665L22.4744 13.5346L21.4999 12.9363L20.5254 13.5346L20.8977 12.5665L19.9232 11.9681H21.1277L21.4999 11Z" fill="url(#paint1_linear)"/>
<ellipse cx="16.2499" cy="19.687" rx="0.276316" ry="0.28022" fill="#FB0000"/>
<ellipse cx="23.4343" cy="18.0053" rx="0.276316" ry="0.28022" fill="#FB0000"/>
<ellipse cx="27.8552" cy="19.687" rx="0.276316" ry="0.28022" fill="#FB0000"/>
<ellipse cx="13.4868" cy="27.5329" rx="0.276316" ry="0.28022" fill="#FB0000"/>
<ellipse cx="21.7763" cy="28.6538" rx="0.276316" ry="0.28022" fill="#FB0000"/>
<ellipse cx="26.7499" cy="32.0165" rx="0.276316" ry="0.28022" fill="#FB0000"/>
<ellipse cx="20.1184" cy="21.9287" rx="0.276316" ry="0.28022" fill="#FB0000"/>
<ellipse cx="30.0659" cy="27.5329" rx="0.276316" ry="0.28022" fill="#FB0000"/>
<ellipse cx="11.2763" cy="34.8188" rx="0.276316" ry="0.28022" fill="#FB0000"/>
<defs>
<linearGradient id="paint0_linear" x1="21.5" y1="17.7252" x2="21.5" y2="36.2197" gradientUnits="userSpaceOnUse">
<stop stop-color="#0C6D0A"/>
<stop offset="1" stop-color="#0C6D0A" stop-opacity="0"/>
</linearGradient>
<linearGradient id="paint1_linear" x1="21.4999" y1="11" x2="21.4999" y2="13.8022" gradientUnits="userSpaceOnUse">
<stop offset="0.578125" stop-color="#F7FA6B"/>
<stop offset="0.9999" stop-color="#F0F35E" stop-opacity="0.973958"/>
<stop offset="1" stop-color="#F0F35E" stop-opacity="0"/>
</linearGradient>
</defs>
</svg>
